<svg width="32" height="32" viewBox="0 0 32 32" fill="none" xmlns="http://www.w3.org/2000/svg">
<g clip-path="url(#clip0_9_502)">
<path d="M18.644 14.7707H21.4694C21.5349 14.7707 21.5978 14.7447 21.6442 14.6985C21.6907 14.6523 21.717 14.5895 21.7174 14.524V12.008C21.7174 11.9422 21.6912 11.8791 21.6447 11.8326C21.5982 11.7861 21.5351 11.76 21.4694 11.76H18.644C18.5786 11.76 18.5159 11.786 18.4696 11.8322C18.4233 11.8785 18.3974 11.9412 18.3974 12.0067V14.524C18.3974 14.66 18.508 14.7707 18.644 14.7707ZM14.7054 7.53066H17.5294C17.5951 7.53066 17.6582 7.50453 17.7047 7.45802C17.7512 7.41152 17.7774 7.34843 17.7774 7.28266V4.76533C17.777 4.69979 17.7507 4.63705 17.7043 4.59083C17.6578 4.54461 17.5949 4.51866 17.5294 4.51866H14.7054C14.6399 4.51866 14.5772 4.54465 14.5309 4.59091C14.4847 4.63717 14.4587 4.69991 14.4587 4.76533V7.28266C14.4587 7.41866 14.568 7.53066 14.7054 7.53066ZM14.7054 11.1507H17.5294C17.595 11.1503 17.6579 11.1241 17.7043 11.0776C17.7508 11.0312 17.777 10.9683 17.7774 10.9027V8.38666C17.777 8.32112 17.7507 8.25838 17.7043 8.21216C17.6578 8.16594 17.5949 8.13999 17.5294 8.13999H14.7054C14.6399 8.13999 14.5772 8.16598 14.5309 8.21224C14.4847 8.2585 14.4587 8.32124 14.4587 8.38666V10.9027C14.4587 11.0387 14.568 11.1493 14.7054 11.1507ZM10.7987 11.1507H13.6254C13.6907 11.15 13.7531 11.1235 13.799 11.0771C13.8449 11.0307 13.8707 10.968 13.8707 10.9027V8.38666C13.8707 8.32124 13.8447 8.2585 13.7984 8.21224C13.7522 8.16598 13.6894 8.13999 13.624 8.13999H10.8C10.7346 8.13999 10.6719 8.16598 10.6256 8.21224C10.5793 8.2585 10.5534 8.32124 10.5534 8.38666V10.9027C10.5534 11.0387 10.664 11.1493 10.8 11.1507M6.84802 11.1507H9.67336C9.7389 11.1503 9.80164 11.124 9.84786 11.0776C9.89408 11.0311 9.92002 10.9682 9.92002 10.9027V8.38666C9.92002 8.32124 9.89404 8.2585 9.84778 8.21224C9.80152 8.16598 9.73878 8.13999 9.67336 8.13999H6.84802C6.78248 8.13999 6.7196 8.16594 6.67313 8.21216C6.62666 8.25838 6.60038 8.32112 6.60002 8.38666V10.9027C6.60002 11.0387 6.71202 11.1493 6.84802 11.1507ZM14.7054 14.7707H17.5294C17.5949 14.7707 17.6578 14.7447 17.7043 14.6985C17.7507 14.6523 17.777 14.5895 17.7774 14.524V12.008C17.7774 11.9422 17.7512 11.8791 17.7047 11.8326C17.6582 11.7861 17.5951 11.76 17.5294 11.76H14.7054C14.6399 11.76 14.5772 11.786 14.5309 11.8322C14.4847 11.8785 14.4587 11.9412 14.4587 12.0067V14.524C14.4587 14.66 14.568 14.7707 14.7054 14.7707ZM10.7987 14.7707H13.6254C13.6905 14.7703 13.7529 14.7442 13.7989 14.6979C13.8449 14.6517 13.8707 14.5892 13.8707 14.524V12.008C13.8709 11.9756 13.8647 11.9435 13.8524 11.9135C13.8402 11.8835 13.8222 11.8562 13.7994 11.8332C13.7766 11.8102 13.7495 11.7918 13.7197 11.7793C13.6898 11.7667 13.6577 11.7602 13.6254 11.76H10.7987C10.7335 11.7603 10.6711 11.7865 10.6251 11.8327C10.5792 11.8789 10.5534 11.9415 10.5534 12.0067V14.524C10.5534 14.66 10.664 14.7707 10.8 14.7707M6.84802 14.7707H9.67336C9.73878 14.7707 9.80152 14.7447 9.84778 14.6984C9.89404 14.6522 9.92002 14.5894 9.92002 14.524V12.008C9.9202 11.9756 9.91399 11.9435 9.90176 11.9135C9.88952 11.8835 9.8715 11.8562 9.84872 11.8332C9.82594 11.8102 9.79884 11.7918 9.76898 11.7793C9.73912 11.7667 9.70708 11.7602 9.67469 11.76H6.84802C6.78225 11.76 6.71917 11.7861 6.67266 11.8326C6.62615 11.8791 6.60002 11.9422 6.60002 12.008V14.524C6.60002 14.66 6.71202 14.7707 6.84802 14.7707ZM2.95469 14.7707H5.78136C5.84655 14.7703 5.90894 14.7442 5.95492 14.6979C6.00089 14.6517 6.02669 14.5892 6.02669 14.524V12.008C6.02687 11.9756 6.02066 11.9435 6.00842 11.9135C5.99619 11.8835 5.97817 11.8562 5.95539 11.8332C5.93261 11.8102 5.90551 11.7918 5.87565 11.7793C5.84579 11.7667 5.81375 11.7602 5.78136 11.76H2.95469C2.8895 11.7603 2.8271 11.7865 2.78113 11.8327C2.73516 11.8789 2.70936 11.9415 2.70936 12.0067V14.524C2.70936 14.66 2.81736 14.7707 2.95469 14.7707ZM31.684 13.1867C31.5974 13.1187 30.788 12.5067 29.0787 12.5067C28.628 12.508 28.1774 12.5467 27.732 12.6227C27.4014 10.356 25.528 9.24933 25.444 9.20133L24.9854 8.93599L24.684 9.37199C24.3054 9.95599 24.0307 10.6013 23.868 11.2787C23.5614 12.572 23.748 13.788 24.4054 14.8267C23.612 15.2693 22.3387 15.3773 22.08 15.3867H1.00136C0.736709 15.387 0.482962 15.4921 0.295578 15.679C0.108194 15.8659 0.00241298 16.1193 0.00135603 16.384C-0.0233351 18.2304 0.289349 20.0659 0.924023 21.8C1.65069 23.704 2.73069 25.1067 4.13736 25.9653C5.71069 26.9293 8.27069 27.4813 11.1707 27.4813C12.4814 27.4853 13.788 27.3667 15.0774 27.1267C16.8678 26.7977 18.5907 26.1718 20.1747 25.2747C21.4814 24.5187 22.6547 23.5573 23.6547 22.4267C25.324 20.536 26.3187 18.4307 27.0587 16.56H27.3534C29.1827 16.56 30.3067 15.828 30.9267 15.2147C31.3387 14.824 31.66 14.348 31.8694 13.82L32 13.436L31.684 13.1867Z" fill="#2496ED"/>
</g>
<defs>
<clipPath id="clip0_9_502">
<rect width="32" height="32" fill="white"/>
</clipPath>
</defs>
</svg>
