<svg width="32" height="32" viewBox="0 0 32 32" fill="none" xmlns="http://www.w3.org/2000/svg">
<g clip-path="url(#clip0_9_374)">
<path d="M32 24.784C31.5343 24.9602 31.0202 24.9598 30.5547 24.7829C30.0893 24.6061 29.7046 24.265 29.4733 23.824L24.8734 17.4627L24.2067 16.5733L18.8694 23.832C18.652 24.2545 18.2882 24.5833 17.846 24.7571C17.4038 24.9308 16.9135 24.9375 16.4667 24.776L23.344 15.5493L16.9467 7.21467C17.4067 7.0489 17.9097 7.04671 18.3712 7.20845C18.8326 7.37019 19.2242 7.68599 19.48 8.10267L24.248 14.5427L29.0427 8.12934C29.2617 7.71439 29.6256 7.39439 30.0651 7.23018C30.5047 7.06596 30.9892 7.06899 31.4267 7.23867L28.944 10.5333L25.5814 14.9107C25.488 14.994 25.4132 15.0961 25.3621 15.2103C25.3109 15.3245 25.2845 15.4482 25.2845 15.5733C25.2845 15.6985 25.3109 15.8222 25.3621 15.9364C25.4132 16.0506 25.488 16.1527 25.5814 16.236L31.9867 24.7853L32 24.784ZM0.00268266 15.4347L0.562683 12.668C2.10135 7.19734 8.37335 4.92134 12.688 8.30801C15.2147 10.2933 15.8454 13.104 15.7214 16.272H1.48802C1.25735 21.9293 5.34002 25.3453 10.56 23.6C11.4062 23.2954 12.1637 22.7857 12.7645 22.1164C13.3653 21.4472 13.7907 20.6394 14.0027 19.7653C14.2787 18.8773 14.7333 18.7253 15.568 18.9813C15.4289 20.0645 15.046 21.102 14.4481 22.0159C13.8502 22.9297 13.0528 23.6961 12.116 24.2573C10.5686 25.1038 8.79312 25.4393 7.04352 25.2158C5.29391 24.9924 3.65975 24.2215 2.37468 23.0133C1.10406 21.5832 0.336118 19.7767 0.188016 17.8693C0.188016 17.556 0.0813493 17.2627 0.00934933 16.9813C0.0028587 16.4663 -0.000252476 15.9511 1.5995e-05 15.436L0.00268266 15.4347ZM1.50535 15.0533H14.3773C14.2973 10.952 11.7093 8.04267 8.25735 8.01601C4.41468 7.96267 1.66535 10.808 1.49602 15.0347L1.50535 15.0533Z" fill="#F5F5F5"/>
</g>
<defs>
<clipPath id="clip0_9_374">
<rect width="32" height="32" fill="white"/>
</clipPath>
</defs>
</svg>
