<svg width="32" height="32" viewBox="0 0 32 32" fill="none" xmlns="http://www.w3.org/2000/svg">
<g clip-path="url(#clip0_9_389)">
<path d="M31.3947 14.5734L17.4227 0.602756C16.6173 -0.201244 15.3133 -0.201244 14.5053 0.602756L11.6107 3.50276L15.2907 7.18276C16.1507 6.89609 17.1293 7.08942 17.8093 7.77076C18.4973 8.45742 18.6867 9.44809 18.3933 10.3041L21.9373 13.8508C22.7973 13.5534 23.7867 13.7468 24.4707 14.4308C25.432 15.3908 25.432 16.9428 24.4707 17.9028C23.512 18.8614 21.9627 18.8614 21.004 17.9028C20.2853 17.1814 20.1053 16.1201 20.4653 15.2414L17.1467 11.9401V20.6401C17.3813 20.7548 17.6027 20.9108 17.7973 21.1041C18.748 22.0654 18.748 23.6148 17.7973 24.5708C16.8387 25.5321 15.2787 25.5321 14.3187 24.5708C13.36 23.6121 13.36 22.0654 14.3187 21.1068C14.5613 20.8668 14.8347 20.6854 15.1253 20.5654V11.7801C14.836 11.6588 14.56 11.4841 14.3253 11.2454C13.5987 10.5188 13.424 9.45609 13.7973 8.56676L10.1813 4.93342L0.6 14.5081C-0.2 15.3148 -0.2 16.6201 0.6 17.4268L14.5733 31.3961C15.3787 32.2014 16.6827 32.2014 17.488 31.3961L31.3947 17.4894C32.2013 16.6854 32.2013 15.3801 31.3947 14.5734Z" fill="#F05032"/>
</g>
<defs>
<clipPath id="clip0_9_389">
<rect width="32" height="32" fill="white"/>
</clipPath>
</defs>
</svg>
