<svg width="32" height="32" viewBox="0 0 32 32" fill="none" xmlns="http://www.w3.org/2000/svg">
<g clip-path="url(#clip0_9_383)">
<path d="M22.924 12.74C21.2386 5.3 17.2546 2.85467 16.8266 1.92C16.4533 1.39467 16.12 0.648 15.8466 0C15.7986 0.66 15.7733 0.913333 15.1493 1.57867C14.1853 2.33333 9.23198 6.488 8.82931 14.9387C8.45331 22.8213 14.5226 27.5187 15.3466 28.1173L15.44 28.184C15.6116 29.453 15.7583 30.7252 15.88 32H16.5213C16.6733 30.624 16.9 29.2587 17.2013 27.9067C17.7573 27.512 18.0066 27.2893 18.3346 26.9827C19.8879 25.5457 21.1224 23.7988 21.9581 21.8548C22.7939 19.9109 23.2124 17.8132 23.1866 15.6973C23.2 14.612 23.0493 13.4813 22.924 12.74ZM15.8093 23.6667C15.8093 23.6667 15.8093 12.612 16.176 12.6133C16.46 12.6133 16.8293 26.8733 16.8293 26.8733C16.3213 26.8133 15.8093 24.5267 15.8093 23.6667Z" fill="#47A248"/>
</g>
<defs>
<clipPath id="clip0_9_383">
<rect width="32" height="32" fill="white"/>
</clipPath>
</defs>
</svg>
