<svg width="32" height="32" viewBox="0 0 32 32" fill="none" xmlns="http://www.w3.org/2000/svg">
<g clip-path="url(#clip0_9_377)">
<path d="M18.8413 0.0626678C18.6107 0.0626678 18.396 0.112001 18.1973 0.178668C18.6187 0.458668 18.8507 0.832001 18.9653 1.25333C18.9747 1.31067 18.9907 1.352 18.9987 1.40933C19.0085 1.45855 19.0143 1.5085 19.016 1.55867C19.048 2.28533 18.8253 2.37733 18.6693 2.80667C18.4293 3.36 18.496 3.95467 18.784 4.43333C18.8104 4.49752 18.8434 4.55875 18.8827 4.616C18.5693 2.52533 20.3133 2.212 20.6347 1.55867C20.66 0.988001 20.1893 0.608001 19.8173 0.344001C19.525 0.160307 19.1866 0.0632222 18.8413 0.0640012V0.0626678ZM21.4693 0.533335C21.4373 0.724001 21.4613 0.674668 21.4533 0.773335C21.4453 0.840001 21.4453 0.922668 21.4373 0.988001C21.42 1.05467 21.404 1.12133 21.3787 1.18667C21.3627 1.25333 21.3387 1.32 21.312 1.38533L21.2227 1.57467C21.196 1.608 21.1813 1.64133 21.156 1.67467L21.1067 1.748C21.0673 1.80458 21.026 1.85973 20.9827 1.91333C20.9333 1.964 20.892 2.02133 20.8333 2.06267V2.07067C20.784 2.112 20.7347 2.16133 20.676 2.204C20.5027 2.336 20.3053 2.43467 20.1227 2.55867C20.0653 2.59867 20.0067 2.63333 19.9573 2.68267C19.9012 2.72212 19.8486 2.76628 19.8 2.81467C19.7427 2.864 19.7013 2.91333 19.652 2.972C19.6107 3.02133 19.5613 3.07867 19.528 3.13733C19.4865 3.19316 19.4478 3.25101 19.412 3.31067C19.3787 3.37733 19.3547 3.43467 19.3213 3.5C19.296 3.56667 19.272 3.624 19.2547 3.69067C19.2328 3.75876 19.2137 3.82771 19.1973 3.89733C19.1893 3.93067 19.1893 3.972 19.1813 4.004C19.172 4.03733 19.172 4.07067 19.164 4.104C19.164 4.17067 19.156 4.244 19.156 4.31067C19.156 4.36 19.156 4.40933 19.164 4.45867C19.164 4.52533 19.172 4.592 19.1893 4.66533C19.1973 4.732 19.2133 4.79867 19.2293 4.86533C19.256 4.93067 19.272 4.996 19.296 5.06267C19.3133 5.10267 19.3373 5.14533 19.3547 5.17867L17.4533 4.44267C17.132 4.352 16.8173 4.26933 16.4947 4.19467L15.9747 4.07067C15.4787 3.972 14.9747 3.89733 14.4707 3.848C14.4533 3.848 14.4453 3.84 14.4293 3.84C13.5777 3.75469 12.7202 3.74354 11.8667 3.80667C11.3627 3.84 10.8587 3.90533 10.3547 3.988C9.98011 4.05254 9.60789 4.12992 9.23865 4.22L8.86665 4.31867C8.74399 4.368 8.62665 4.42533 8.51199 4.476L8.23865 4.6C8.22265 4.608 8.20665 4.608 8.19866 4.616C8.11465 4.65733 8.04132 4.69067 7.96665 4.732C7.8593 4.77936 7.75429 4.83186 7.65199 4.88933C7.59465 4.91333 7.53732 4.94667 7.48665 4.972C7.46298 4.9867 7.43849 5.00005 7.41332 5.012C7.33865 5.05467 7.26399 5.096 7.19732 5.13733C7.12928 5.17495 7.0634 5.21635 6.99999 5.26133C6.94132 5.30133 6.88399 5.33467 6.83465 5.376C6.82665 5.38533 6.81732 5.38533 6.80932 5.39333C6.75999 5.42667 6.70265 5.468 6.65199 5.50933L6.63599 5.52533L6.51199 5.624C6.49599 5.63333 6.47865 5.64933 6.46266 5.65733C6.42132 5.69067 6.37999 5.732 6.33865 5.764C6.33066 5.78133 6.31332 5.79067 6.30532 5.79733C6.25599 5.848 6.20666 5.88933 6.15732 5.93867C6.14799 5.93867 6.14799 5.94667 6.13999 5.95467C6.0886 5.99958 6.03922 6.04674 5.99199 6.096C5.98265 6.104 5.98265 6.112 5.97465 6.112C5.93126 6.15448 5.88988 6.19897 5.85066 6.24533C5.83465 6.26133 5.81065 6.27733 5.79332 6.29333C5.74904 6.34572 5.70186 6.39558 5.65199 6.44267C5.64399 6.45867 5.62799 6.468 5.61999 6.48267C5.55332 6.54934 5.49599 6.616 5.42932 6.68267L5.40532 6.70667C5.27199 6.848 5.13199 6.988 4.98266 7.112C4.83466 7.24534 4.67732 7.368 4.51999 7.476C4.20409 7.70165 3.86316 7.89001 3.50399 8.03733C3.33066 8.112 3.14799 8.17867 2.96666 8.236C2.61999 8.31067 2.26399 8.45067 1.95866 8.476C1.89199 8.476 1.81866 8.492 1.75199 8.5L1.54532 8.54934L1.34666 8.624C1.27999 8.64933 1.21466 8.68267 1.14932 8.71467C1.09066 8.756 1.02532 8.78934 0.966655 8.83067C0.907827 8.87325 0.852536 8.92051 0.801322 8.972C0.743989 9.012 0.685322 9.07067 0.635989 9.12C0.586655 9.17733 0.537322 9.22667 0.495989 9.28534C0.454655 9.352 0.405322 9.40934 0.371989 9.476C0.328559 9.53607 0.28978 9.59936 0.255989 9.66533C0.222655 9.74 0.189322 9.80667 0.165322 9.88C0.139989 9.94667 0.115989 10.0213 0.0906555 10.0947C0.0746555 10.1613 0.0573222 10.228 0.0506555 10.2947C0.0506555 10.3013 0.0413222 10.3107 0.0413222 10.3187C0.0253222 10.3933 0.0253222 10.492 0.0159888 10.5413C0.00798882 10.6 -1.11762e-05 10.648 -1.11762e-05 10.7067C-0.0015452 10.8505 0.0323407 10.9924 0.0986555 11.12V11.128C0.123989 11.1773 0.157322 11.228 0.190655 11.2773C0.222655 11.3267 0.257322 11.376 0.297322 11.4253C0.338655 11.4667 0.387989 11.5173 0.438655 11.5587C0.486834 11.607 0.53902 11.6512 0.594655 11.6907C0.793322 11.864 0.842655 11.9213 1.09866 12.0533C1.13999 12.0787 1.18132 12.0947 1.23199 12.12C1.23999 12.12 1.24799 12.128 1.25599 12.128C1.25599 12.1453 1.25599 12.1533 1.26399 12.1693C1.28329 12.3056 1.31911 12.439 1.37066 12.5667C1.39732 12.616 1.41332 12.6653 1.43732 12.7147C1.44666 12.732 1.45466 12.748 1.46399 12.756C1.49599 12.8227 1.52932 12.88 1.56132 12.9387L1.68532 13.112C1.72666 13.1613 1.77732 13.2187 1.82666 13.2693C1.87599 13.3187 1.92532 13.36 1.98399 13.4093C1.98399 13.4093 1.99199 13.4173 1.99999 13.4173C2.04932 13.4587 2.09866 13.5 2.14932 13.5333C2.20682 13.5737 2.26746 13.6093 2.33066 13.64C2.38799 13.6733 2.45466 13.7067 2.51999 13.732C2.57327 13.756 2.6286 13.7752 2.68532 13.7893C2.69466 13.7973 2.70266 13.7973 2.71866 13.8053C2.75199 13.8147 2.79332 13.8227 2.82532 13.8307C2.80132 14.2773 2.79332 14.6973 2.85999 14.8467C2.93332 15.012 3.29732 14.508 3.65999 13.9293C3.61199 14.5 3.57866 15.1693 3.65999 15.368C3.75199 15.5747 4.24665 14.9293 4.67732 14.2187C10.5373 12.864 15.884 16.912 16.4453 22.632C16.3387 21.7387 15.2387 21.244 14.7347 21.368C14.4867 21.9787 14.0653 22.764 13.388 23.252C13.4453 22.7053 13.4213 22.1453 13.3053 21.5987C13.1202 22.3596 12.7702 23.0706 12.28 23.6813C11.496 23.7387 10.7107 23.3587 10.2973 22.788C10.264 22.764 10.256 22.7147 10.2307 22.6813C10.2067 22.624 10.1813 22.5653 10.164 22.508C10.14 22.4526 10.1234 22.3944 10.1147 22.3347C10.1067 22.276 10.1067 22.2187 10.1067 22.152V22.028C10.1165 21.9694 10.1303 21.9115 10.148 21.8547C10.1653 21.7973 10.1813 21.74 10.2067 21.6813C10.2387 21.624 10.264 21.5653 10.3053 21.508C10.4453 21.1107 10.4453 20.788 10.1893 20.5987C10.1396 20.5662 10.0869 20.5385 10.032 20.516C9.99999 20.508 9.95865 20.492 9.92532 20.4827L9.85865 20.4587C9.80206 20.4403 9.7441 20.4265 9.68532 20.4173C9.62901 20.4009 9.57066 20.3923 9.51199 20.392C9.45197 20.3826 9.39139 20.3772 9.33066 20.376C9.28932 20.376 9.24799 20.384 9.20665 20.384C9.14487 20.3837 9.08335 20.3922 9.02399 20.4093C8.96665 20.4173 8.90932 20.4253 8.85065 20.4413C8.79168 20.4572 8.73378 20.4767 8.67732 20.5C8.61999 20.524 8.57065 20.5493 8.51199 20.5747C8.46265 20.5987 8.41332 20.632 8.35465 20.6573C6.42932 21.9133 7.57865 24.8547 8.89199 25.7067C8.39599 25.7973 7.89199 25.904 7.75199 26.012L7.73465 26.028C8.09066 26.2427 8.46266 26.4253 8.85065 26.5827C9.37999 26.756 9.94132 26.912 10.1893 26.9787V26.9867C10.874 27.1273 11.5742 27.1775 12.272 27.136C15.9333 26.88 18.9333 24.0947 19.4787 20.4253L19.528 20.64C19.5533 20.7893 19.5853 20.9467 19.6027 21.1027V21.1107C19.6187 21.1853 19.6267 21.26 19.636 21.3267V21.3587C19.644 21.4333 19.652 21.508 19.652 21.5747C19.66 21.6653 19.668 21.756 19.668 21.8467V21.98C19.668 22.02 19.6773 22.0693 19.6773 22.1107C19.6773 22.1613 19.668 22.2107 19.668 22.26V22.376C19.668 22.4333 19.66 22.4827 19.66 22.5413C19.66 22.5747 19.66 22.608 19.652 22.648C19.652 22.7067 19.644 22.764 19.644 22.8307C19.636 22.8547 19.636 22.88 19.636 22.904L19.6093 23.0947C19.6093 23.12 19.6093 23.144 19.6027 23.1693C19.5933 23.252 19.5773 23.3267 19.5693 23.4093V23.4253L19.52 23.6573V23.6813L19.4707 23.904C19.4707 23.9133 19.4613 23.9307 19.4613 23.9373C19.4461 24.0129 19.427 24.0877 19.404 24.1613V24.1853C19.3787 24.268 19.3547 24.3427 19.3373 24.4173C19.3293 24.4253 19.3293 24.4333 19.3293 24.4333L19.2547 24.6813C19.2227 24.764 19.1973 24.8387 19.164 24.9213C19.1307 25.004 19.1067 25.0867 19.0733 25.1613C19.04 25.244 19.0067 25.3173 18.9747 25.4013H18.9653C18.9333 25.4747 18.8987 25.5573 18.8587 25.632C18.8517 25.6517 18.8432 25.6709 18.8333 25.6893C18.8253 25.6973 18.8253 25.7067 18.8173 25.7147C18.2708 26.8089 17.4752 27.7596 16.4947 28.4907C16.428 28.532 16.3627 28.5827 16.296 28.632C16.28 28.648 16.256 28.656 16.2387 28.672C16.1796 28.7157 16.1191 28.7575 16.0573 28.7973L16.0813 28.8467H16.0907L16.4373 28.7973H16.4453C16.66 28.764 16.8747 28.7227 17.0893 28.6813C17.148 28.6733 17.2133 28.656 17.272 28.64L17.388 28.6147C17.4453 28.6067 17.5027 28.5907 17.5613 28.5827C17.6107 28.5653 17.66 28.556 17.7093 28.5413C18.536 28.3413 19.3373 28.0693 20.1067 27.748C18.7784 29.5571 17.012 30.9987 14.9733 31.9373C15.9253 31.8707 16.8747 31.7147 17.792 31.4493C21.1123 30.4731 23.9166 28.2324 25.6013 25.2093C25.261 27.123 24.5021 28.9378 23.3787 30.524C24.1796 29.9957 24.9197 29.3804 25.5853 28.6893C27.4351 26.7581 28.6495 24.307 29.0653 21.6653C29.3453 22.972 29.428 24.3187 29.3053 25.648C35.2707 17.3267 29.8 8.69867 27.5107 6.42667C27.5027 6.40934 27.4947 6.40133 27.4947 6.38533C27.4867 6.39333 27.4867 6.39333 27.4867 6.40133C27.4867 6.39333 27.4867 6.39333 27.4773 6.38533C27.4773 6.484 27.4693 6.58267 27.4613 6.68267C27.4384 6.86778 27.4108 7.05228 27.3787 7.236C27.3387 7.41734 27.288 7.6 27.2387 7.78267C27.18 7.956 27.1147 8.13733 27.0387 8.31067C26.9631 8.48185 26.8808 8.64999 26.792 8.81467C26.6075 9.13862 26.3947 9.4456 26.156 9.732C26.032 9.88 25.9 10.012 25.7667 10.1453C25.6887 10.2166 25.6087 10.2855 25.5267 10.352L25.3373 10.5173C25.1898 10.6338 25.0353 10.7411 24.8747 10.8387C24.7167 10.9404 24.5538 11.0343 24.3867 11.12C24.2133 11.2027 24.04 11.2773 23.8667 11.352C23.5136 11.4863 23.1483 11.5859 22.776 11.6493C22.5853 11.6827 22.396 11.6987 22.2133 11.716C22.0815 11.7253 21.9495 11.7307 21.8173 11.732C21.6294 11.7294 21.4416 11.7183 21.2547 11.6987C21.0659 11.6839 20.8783 11.6562 20.6933 11.616C20.5059 11.582 20.321 11.5352 20.14 11.476H20.1307C20.3133 11.4587 20.4947 11.4427 20.6773 11.4093C21.0494 11.3448 21.4146 11.2453 21.768 11.112C21.9493 11.0453 22.1227 10.9627 22.288 10.88C22.4613 10.7973 22.6187 10.7067 22.784 10.608C22.9413 10.5013 23.0973 10.3933 23.2467 10.2773C23.396 10.1613 23.536 10.0373 23.668 9.90533C23.808 9.78133 23.932 9.64133 24.056 9.5C24.18 9.352 24.296 9.20267 24.4027 9.05467C24.42 9.02934 24.4373 8.996 24.4533 8.972C24.536 8.83867 24.6187 8.70667 24.6933 8.57467C24.8755 8.24577 25.0247 7.89963 25.1387 7.54134C25.1973 7.368 25.2387 7.18667 25.28 7.004C25.3133 6.81467 25.3467 6.63333 25.3627 6.45067C25.3787 6.26133 25.396 6.07067 25.396 5.88933C25.396 5.756 25.3867 5.624 25.3787 5.492C25.3622 5.30691 25.3399 5.12238 25.312 4.93867C25.2799 4.75239 25.2389 4.56774 25.1893 4.38533C25.1307 4.212 25.0733 4.02933 25.0067 3.856C24.94 3.68267 24.8587 3.50933 24.776 3.344C24.684 3.17867 24.5933 3.01333 24.4947 2.856C24.3891 2.70154 24.2788 2.55035 24.164 2.40267C24.04 2.26133 23.916 2.12 23.784 1.98C23.7144 1.90906 23.6428 1.84015 23.5693 1.77333C23.196 1.484 22.8093 1.212 22.42 0.964001C22.3666 0.933157 22.3114 0.905552 22.2547 0.881335C22.0095 0.731246 21.7454 0.613321 21.4693 0.533335Z" fill="#E0234E"/>
</g>
<defs>
<clipPath id="clip0_9_377">
<rect width="32" height="32" fill="white"/>
</clipPath>
</defs>
</svg>
