<svg width="32" height="32" viewBox="0 0 32 32" fill="none" xmlns="http://www.w3.org/2000/svg">
<path d="M16 0L2.14001 8V24L16 32L29.86 24V8L16 0ZM24 22.12C24 23.06 23.1387 23.84 21.9613 23.84C21.12 23.84 20.16 23.5 19.56 22.76L11.56 13.2387V22.1187C11.56 23.08 10.8 23.8387 9.86135 23.8387H9.76002C8.79868 23.8387 8.04002 23.0387 8.04002 22.1187V9.88C8.04002 8.94 8.88001 8.16 10.04 8.16C10.9013 8.16 11.88 8.5 12.48 9.24L20.44 18.7613V9.88C20.44 8.91867 21.24 8.16 22.16 8.16H22.26C23.22 8.16 23.98 8.96 23.98 9.88V22.12H24Z" fill="#009639"/>
</svg>
