<svg width="32" height="32" viewBox="0 0 32 32" fill="none" xmlns="http://www.w3.org/2000/svg">
<g clip-path="url(#clip0_9_371)">
<path d="M15.9973 32C15.5693 32 15.1427 31.888 14.768 31.6707L10.8533 29.3547C10.2693 29.028 10.5547 28.912 10.7467 28.844C11.5267 28.5733 11.684 28.5107 12.5173 28.0387C12.604 27.9893 12.7187 28.008 12.808 28.0613L15.816 29.8467C15.9253 29.9067 16.0787 29.9067 16.1787 29.8467L27.9053 23.0787C28.0147 23.016 28.084 22.8907 28.084 22.7613V9.228C28.084 9.096 28.0133 8.972 27.9013 8.90533L16.18 2.14266C16.072 2.08 15.928 2.08 15.8187 2.14266L4.1 8.90666C3.98667 8.972 3.91467 9.1 3.91467 9.228V22.7613C3.91467 22.8907 3.98667 23.0133 4.1 23.0747L7.312 24.9307C9.05467 25.8027 10.1227 24.776 10.1227 23.744V10.3827C10.1227 10.1933 10.2747 10.0453 10.464 10.0453H11.9507C12.136 10.0453 12.2907 10.1947 12.2907 10.3827V23.744C12.2907 26.0707 11.024 27.404 8.81867 27.404C8.14134 27.404 7.60667 27.404 6.11734 26.6693L3.04 24.9C2.28 24.4613 1.81067 23.64 1.81067 22.7613V9.228C1.81067 8.34933 2.28134 7.528 3.04 7.09066L14.7667 0.314664C15.5093 -0.105336 16.4947 -0.105336 17.2307 0.314664L28.956 7.09066C29.716 7.52933 30.188 8.34933 30.188 9.228V22.7613C30.188 23.64 29.716 24.4587 28.956 24.9L17.2307 31.6707C16.8573 31.888 16.432 32 15.9973 32ZM25.4653 18.6573C25.4653 16.124 23.7533 15.4493 20.1493 14.9733C16.508 14.492 16.1373 14.2427 16.1373 13.3907C16.1373 12.6867 16.4507 11.7467 19.148 11.7467C21.5573 11.7467 22.4453 12.2653 22.8107 13.8893C22.8427 14.0427 22.9827 14.1547 23.14 14.1547H24.6613C24.756 14.1547 24.8453 14.1133 24.9093 14.0467C24.9733 13.9747 25.008 13.8827 24.9987 13.7853C24.7627 10.988 22.904 9.684 19.148 9.684C15.804 9.684 13.8093 11.0947 13.8093 13.4613C13.8093 16.028 15.7933 16.7373 19.0027 17.0547C22.8427 17.4307 23.14 17.992 23.14 18.7467C23.14 20.0573 22.088 20.616 19.6173 20.616C16.5147 20.616 15.832 19.8373 15.6027 18.2933C15.576 18.128 15.4347 18.0067 15.2653 18.0067H13.7493C13.5613 18.0067 13.4107 18.156 13.4107 18.344C13.4107 20.32 14.4853 22.6747 19.6173 22.6747C23.3347 22.676 25.4653 21.2133 25.4653 18.6573Z" fill="#5FA04E"/>
</g>
<defs>
<clipPath id="clip0_9_371">
<rect width="32" height="32" fill="white"/>
</clipPath>
</defs>
</svg>
