<svg width="32" height="32" viewBox="0 0 32 32" fill="none" xmlns="http://www.w3.org/2000/svg">
<path d="M18.9733 16.0053C18.9733 16.7958 18.6594 17.5539 18.1006 18.113C17.5418 18.6721 16.7838 18.9863 15.9933 18.9867C15.2026 18.9867 14.4443 18.6726 13.8852 18.1135C13.3261 17.5543 13.012 16.796 13.012 16.0053C13.012 15.2149 13.3259 14.4568 13.8847 13.8977C14.4436 13.3386 15.2015 13.0244 15.992 13.024C16.7827 13.024 17.541 13.3381 18.1001 13.8972C18.6592 14.4563 18.9733 15.2146 18.9733 16.0053ZM22.504 1.752C20.7093 1.752 18.3613 3.032 15.9867 5.248C13.6133 3.044 11.264 1.77867 9.47067 1.77867C8.924 1.77867 8.42667 1.90267 7.996 2.14933C6.16267 3.20667 5.752 6.50133 6.69867 10.636C2.64 11.8893 0 13.8933 0 16.0053C0 18.1253 2.65333 20.1347 6.724 21.3787C5.78533 25.5293 6.204 28.8293 8.04133 29.8853C8.468 30.1347 8.96133 30.252 9.51067 30.252C11.304 30.252 13.6533 28.972 16.028 26.7533C18.4013 28.9587 20.7507 30.224 22.544 30.224C23.0907 30.224 23.588 30.104 24.0187 29.8573C25.8507 28.8013 26.2627 25.5067 25.316 21.3707C29.36 20.128 32 18.12 32 16.0053C32 13.8853 29.3467 11.876 25.276 10.6293C26.2147 6.48267 25.796 3.18 23.9587 2.12267C23.5347 1.87733 23.0427 1.75333 22.504 1.752ZM22.4973 3.20533V3.21333C22.7973 3.21333 23.0387 3.272 23.2413 3.38267C24.1293 3.892 24.5147 5.82933 24.2147 8.32133C24.1427 8.93467 24.0253 9.58133 23.8813 10.2413C22.6013 9.92667 21.2067 9.68533 19.7387 9.52933C18.8587 8.32267 17.9453 7.22667 17.0253 6.26667C19.148 4.29333 21.1413 3.21067 22.4987 3.20667L22.4973 3.20533ZM9.47067 3.232C10.82 3.232 12.8227 4.30933 14.9507 6.272C14.036 7.232 13.124 8.32133 12.2573 9.528C10.7813 9.684 9.38533 9.92533 8.10667 10.2453C7.95733 9.592 7.84667 8.96 7.768 8.352C7.46133 5.86133 7.84 3.92533 8.72 3.40933C8.97333 3.28933 9.25333 3.23867 9.47067 3.232ZM15.98 7.29867C16.5867 7.92267 17.1933 8.62133 17.7933 9.384C17.2067 9.35733 16.6067 9.33867 16 9.33867C15.3867 9.33867 14.78 9.352 14.1867 9.384C14.7733 8.62133 15.38 7.924 15.98 7.29867ZM16 10.8C16.9867 10.8 17.9693 10.8453 18.936 10.924C19.4773 11.7 20.0053 12.528 20.5133 13.404C21.0093 14.2573 21.46 15.124 21.8707 15.9987C21.46 16.872 21.0093 17.7453 20.52 18.5987C20.0133 19.4787 19.4893 20.316 18.9467 21.092C17.976 21.176 16.992 21.2227 16 21.2227C15.0133 21.2227 14.0307 21.176 13.064 21.0987C12.5227 20.3227 11.9947 19.4933 11.4867 18.6187C10.9907 17.7653 10.54 16.8987 10.1293 16.024C10.5333 15.148 10.9907 14.2733 11.48 13.4187C11.9867 12.5387 12.5107 11.704 13.0533 10.928C14.024 10.8427 15.008 10.7973 16 10.7973V10.8ZM11.1533 11.1387C10.8333 11.6413 10.5133 12.156 10.2147 12.6853C9.91467 13.2053 9.63467 13.728 9.368 14.2507C9.01467 13.376 8.71467 12.504 8.46667 11.6547C9.32 11.4547 10.22 11.276 11.1533 11.1387ZM20.8333 11.1387C21.76 11.276 22.6533 11.4453 23.508 11.6547C23.268 12.4973 22.968 13.364 22.628 14.232C22.3613 13.712 22.0813 13.188 21.7747 12.6667C21.4747 12.144 21.1547 11.6347 20.8347 11.1387H20.8333ZM24.9173 12.0387C25.5627 12.2387 26.176 12.4613 26.7507 12.7027C29.06 13.6893 30.5533 14.98 30.5533 16.004C30.5467 17.028 29.0533 18.324 26.744 19.304C26.184 19.544 25.5707 19.76 24.9373 19.9613C24.564 18.684 24.076 17.3533 23.4707 15.988C24.0707 14.632 24.5507 13.308 24.9173 12.036V12.0387ZM7.05733 12.044C7.428 13.324 7.91733 14.6533 8.524 16.0173C7.924 17.3733 7.44133 18.6973 7.076 19.9693C6.43067 19.7693 5.81733 19.5453 5.24933 19.3027C2.94 18.32 1.44667 17.028 1.44667 16.004C1.44667 14.98 2.94 13.6813 5.24933 12.7027C5.80933 12.4627 6.42267 12.2467 7.05733 12.044ZM22.628 17.7507C22.9813 18.6267 23.2813 19.5 23.5293 20.348C22.676 20.5573 21.7747 20.7347 20.8413 20.868C21.1613 20.368 21.4813 19.852 21.7813 19.324C22.0813 18.804 22.36 18.2733 22.628 17.7507ZM9.368 17.7773C9.63467 18.3 9.91467 18.8213 10.2213 19.344C10.528 19.864 10.8413 20.3733 11.1613 20.868C10.2347 20.732 9.34133 20.5613 8.48667 20.3533C8.72667 19.5133 9.028 18.644 9.36667 17.776L9.368 17.7773ZM23.8933 21.76C24.0427 22.4173 24.16 23.0507 24.232 23.6573C24.5387 26.148 24.16 28.084 23.28 28.6013C23.084 28.7213 22.8293 28.772 22.5293 28.772C21.18 28.772 19.1773 27.696 17.0493 25.732C17.964 24.772 18.876 23.684 19.7427 22.4787C21.2187 22.3213 22.6147 22.08 23.8933 21.76ZM8.12 21.7733C9.4 22.0853 10.7947 22.3267 12.2627 22.4827C13.1427 23.6893 14.056 24.7853 14.976 25.744C12.8493 27.7213 10.8533 28.804 9.496 28.804C9.20267 28.7973 8.95467 28.7373 8.75867 28.628C7.87067 28.1213 7.48533 26.1827 7.78533 23.6907C7.85733 23.0773 7.976 22.432 8.12 21.7733ZM14.2 22.6267C14.7867 22.6533 15.3867 22.672 15.9933 22.672C16.6067 22.672 17.2133 22.6587 17.8067 22.6267C17.22 23.3893 16.6133 24.0867 16.0133 24.7133C15.4067 24.0867 14.8 23.3893 14.2 22.6267Z" fill="#61DAFB"/>
</svg>
