<svg width="32" height="32" viewBox="0 0 32 32" fill="none" xmlns="http://www.w3.org/2000/svg">
<g clip-path="url(#clip0_9_362)">
<path d="M16.0013 6.39999C11.7347 6.39999 9.06801 8.53333 8.00134 12.8C9.60134 10.6667 11.468 9.86666 13.6013 10.4C14.8187 10.704 15.688 11.5867 16.652 12.5653C18.2213 14.1573 20.036 16 24.0013 16C28.268 16 30.9347 13.8667 32.0013 9.59999C30.4013 11.7333 28.5347 12.5333 26.4013 12C25.184 11.696 24.3147 10.8133 23.3507 9.83466C21.7827 8.24266 19.968 6.39999 16.0013 6.39999ZM8.00134 16C3.73468 16 1.06801 18.1333 0.00134277 22.4C1.60134 20.2667 3.46801 19.4667 5.60134 20C6.81868 20.304 7.68801 21.1867 8.65201 22.1653C10.2213 23.7573 12.036 25.6 16.0013 25.6C20.268 25.6 22.9347 23.4667 24.0013 19.2C22.4013 21.3333 20.5347 22.1333 18.4013 21.6C17.184 21.296 16.3147 20.4133 15.3507 19.4347C13.7827 17.8427 11.968 16 8.00134 16Z" fill="#06B6D4"/>
</g>
<defs>
<clipPath id="clip0_9_362">
<rect width="32" height="32" fill="white"/>
</clipPath>
</defs>
</svg>
